<svg width="169" height="30" viewBox="0 0 169 30" fill="none" xmlns="http://www.w3.org/2000/svg">
<path d="M65.7382 14.7139H69.2719V21.4948C68.3646 22.1793 67.314 22.7046 66.1202 23.0707C64.9264 23.4368 63.7246 23.6198 62.5148 23.6198C60.7798 23.6198 59.2199 23.2537 57.8351 22.5215C56.4502 21.7734 55.3599 20.7467 54.564 19.4415C53.7841 18.1203 53.3941 16.632 53.3941 14.9766C53.3941 13.3212 53.7841 11.8408 54.564 10.5356C55.3599 9.21441 56.4582 8.18773 57.859 7.45552C59.2597 6.70739 60.8355 6.33333 62.5865 6.33333C64.0509 6.33333 65.38 6.58005 66.5738 7.0735C67.7676 7.56694 68.7705 8.28323 69.5823 9.22237L67.0991 11.5145C65.9053 10.257 64.4648 9.62827 62.7775 9.62827C61.711 9.62827 60.7639 9.85112 59.9362 10.2968C59.1085 10.7425 58.4638 11.3712 58.0022 12.183C57.5406 12.9948 57.3098 13.926 57.3098 14.9766C57.3098 16.0112 57.5406 16.9344 58.0022 17.7462C58.4638 18.558 59.1005 19.1947 59.9123 19.6564C60.74 20.102 61.6792 20.3249 62.7297 20.3249C63.844 20.3249 64.8468 20.0861 65.7382 19.6086V14.7139ZM80.5143 17.412V23.3333H76.6463V17.3642L70.1758 6.61985H74.2825L78.7474 14.0454L83.2123 6.61985H87.0087L80.5143 17.412ZM103.3 23.3333L103.276 13.3052L98.3576 21.5665H96.6146L91.7199 13.5201V23.3333H88.0907V6.61985H91.2902L97.5458 17.0061L103.706 6.61985H106.881L106.929 23.3333H103.3ZM114.389 9.72378V14.1409H122.125V17.2448H114.389V23.3333H110.521V6.61985H123.152V9.72378H114.389ZM125.398 6.61985H129.266V23.3333H125.398V6.61985ZM136.321 9.77153H130.973V6.61985H145.537V9.77153H140.189V23.3333H136.321V9.77153ZM164.164 23.3333L160.129 17.5314L156.165 23.3333H151.724L157.908 14.8333L152.034 6.61985H156.428L160.272 12.0398L164.044 6.61985H168.223L162.397 14.6901L168.629 23.3333H164.164Z" fill="white"/>
<path d="M12.6278 4.41516V3.8786L12.2055 4.20964L10.2532 5.74018L10.1532 5.8186V5.9457V23.3451V23.4719L10.2528 23.5503L12.2051 25.0874L12.6278 25.4202V24.8822V4.41516Z" fill="white" stroke="white" stroke-width="0.522296"/>
<path d="M31.2296 4.41516V3.8786L31.6519 4.20964L33.6042 5.74018L33.7043 5.8186V5.9457V23.3451V23.4719L33.6047 23.5503L31.6523 25.0874L31.2296 25.4202V24.8822V4.41516Z" fill="white" stroke="white" stroke-width="0.522296"/>
<path d="M7.77878 7.27551V6.73876L7.35646 7.07004L5.40352 8.60196L5.30354 8.68039L5.30355 8.80746L5.5647 8.80744L5.30355 8.80755L5.30355 8.80782L5.30355 8.80889L5.30355 8.81316L5.30355 8.83007L5.30356 8.89644L5.30359 9.1518L5.30369 10.0924L5.30399 13.2075C5.30421 15.6478 5.30443 18.5686 5.30443 20.4908V20.6177L5.40424 20.6961L7.35629 22.2298L7.77878 22.5618V22.0245V7.27551Z" fill="white" stroke="white" stroke-width="0.522296"/>
<path d="M36.0838 7.27496V6.73821L36.5061 7.06949L38.459 8.60141L38.559 8.67984L38.559 8.80692L38.2979 8.80689L38.559 8.807L38.559 8.80727L38.559 8.80834L38.559 8.81261L38.559 8.82952L38.559 8.89589L38.559 9.15126L38.5589 10.0918L38.5586 13.207C38.5583 15.6473 38.5581 18.5681 38.5581 20.4902V20.6172L38.4583 20.6956L36.5063 22.2293L36.0838 22.5612V22.0239V7.27496Z" fill="white" stroke="white" stroke-width="0.522296"/>
<rect x="15.0157" y="13.0982" width="13.8211" height="2.48542" fill="white" stroke="white" stroke-width="0.522296"/>
<path d="M0.547047 11.4589L0.447348 11.5373V11.6641V17.6185V17.7446L0.546092 17.823L2.49911 19.374L2.92266 19.7103V19.1694V10.128V9.59033L2.50006 9.92273L0.547047 11.4589Z" fill="white" stroke="white" stroke-width="0.522296"/>
<path d="M43.3218 11.4583L43.4215 11.5367V11.6636V17.618V17.7441L43.3228 17.8225L41.3698 19.3734L40.9462 19.7098V19.1689V10.1274V9.58978L41.3688 9.92218L43.3218 11.4583Z" fill="white" stroke="white" stroke-width="0.522296"/>
</svg>
