<svg width="100" height="21" viewBox="0 0 100 21" fill="none" xmlns="http://www.w3.org/2000/svg">
<path d="M7.46045 21C6.10401 21 4.85522 20.6833 3.71408 20.0498C2.57294 19.4163 1.66864 18.4977 1.00119 17.2941C0.333729 16.0905 0 14.6652 0 13.0181V12.6063C0 10.9593 0.333729 9.54449 1.00119 8.36199C1.66864 7.15837 2.56218 6.23982 3.68178 5.60633C4.82292 4.95173 6.08248 4.62443 7.46045 4.62443C8.55853 4.62443 9.48436 4.77224 10.2379 5.06787C11.0131 5.34238 11.6374 5.70135 12.1111 6.14479C12.5848 6.56712 12.9508 7.02111 13.2092 7.50678H13.6614V0H16.2128V20.5566H13.7259V17.9909H13.2738C12.8432 18.7722 12.1757 19.4691 11.2714 20.0814C10.3671 20.6938 9.0968 21 7.46045 21ZM8.13868 18.7828C9.77502 18.7828 11.0992 18.276 12.1111 17.2624C13.1446 16.2278 13.6614 14.7919 13.6614 12.9547V12.6697C13.6614 10.8326 13.1446 9.40724 12.1111 8.39366C11.0992 7.35897 9.77502 6.84163 8.13868 6.84163C6.52386 6.84163 5.18894 7.35897 4.13393 8.39366C3.10045 9.40724 2.58371 10.8326 2.58371 12.6697V12.9547C2.58371 14.7919 3.10045 16.2278 4.13393 17.2624C5.18894 18.276 6.52386 18.7828 8.13868 18.7828Z" fill="white"/>
<path d="M21.5596 20.5566V5.06787H24.0464V6.96832H24.4985C24.7784 6.29261 25.2091 5.79638 25.7904 5.47964C26.3717 5.16289 27.1361 5.00452 28.0834 5.00452H29.9566V7.28506H27.9219C26.7808 7.28506 25.855 7.6018 25.1445 8.23529C24.4555 8.84766 24.111 9.80845 24.111 11.1176V20.5566H21.5596Z" fill="white"/>
<path d="M40.465 21C38.8718 21 37.4615 20.6727 36.2342 20.0181C35.0285 19.3635 34.0811 18.4449 33.3921 17.2624C32.7247 16.0588 32.391 14.644 32.391 13.0181V12.6063C32.391 11.0015 32.7247 9.59728 33.3921 8.39366C34.0811 7.19004 35.0285 6.26093 36.2342 5.60633C37.4615 4.95173 38.8718 4.62443 40.465 4.62443C40.5131 4.62443 52.9612 4.62473 53.0089 4.62533C54.5428 4.64447 55.8944 4.97148 57.0638 5.60633C58.291 6.26093 59.2384 7.19004 59.9059 8.39366C60.5948 9.59728 60.9393 11.0015 60.9393 12.6063V13.0181C60.9393 14.644 60.5948 16.0588 59.9059 17.2624C59.2384 18.4449 58.291 19.3635 57.0638 20.0181C55.8944 20.653 54.5428 20.98 53.0089 20.9991C52.9612 20.9997 40.5131 21 40.465 21ZM40.465 18.7511C40.5132 18.7511 52.9613 18.7507 53.0089 18.7499C54.621 18.721 55.908 18.2041 56.87 17.1991C57.882 16.1433 58.3879 14.7285 58.3879 12.9547V12.6697C58.3879 10.8959 57.882 9.4917 56.87 8.45701C55.908 7.43149 54.621 6.90401 53.0089 6.8746C52.9613 6.87373 40.5132 6.8733 40.465 6.8733C38.8072 6.8733 37.4722 7.40121 36.4603 8.45701C35.4483 9.4917 34.9424 10.8959 34.9424 12.6697V12.9547C34.9424 14.7285 35.4483 16.1433 36.4603 17.1991C37.4722 18.2338 38.8072 18.7511 40.465 18.7511Z" fill="white"/>
<path d="M65.5307 20.5566V5.06787H68.0175V7.69683H68.4697C68.8142 6.95777 69.3955 6.29261 70.2137 5.70136C71.0534 5.08899 72.2807 4.7828 73.8955 4.7828C75.0797 4.7828 76.1347 5.02564 77.0605 5.51131C78.0079 5.99698 78.7615 6.71493 79.3213 7.66515C79.8811 8.61538 80.161 9.78733 80.161 11.181V20.5566H77.6096V11.371C77.6096 9.82956 77.2112 8.71041 76.4146 8.01357C75.6395 7.31674 74.5845 6.96832 73.2495 6.96832C71.7209 6.96832 70.4721 7.454 69.5032 8.42534C68.5558 9.39668 68.0821 10.8431 68.0821 12.7647V20.5566H65.5307Z" fill="white"/>
<path d="M92.5718 21C90.9786 21 89.579 20.6727 88.3733 20.0181C87.1676 19.3424 86.231 18.4027 85.5635 17.1991C84.8961 15.9955 84.5623 14.6018 84.5623 13.0181V12.638C84.5623 11.0332 84.8961 9.62896 85.5635 8.42534C86.231 7.22172 87.1568 6.29261 88.341 5.63801C89.5252 4.96229 90.8817 4.62443 92.4104 4.62443C93.896 4.62443 95.2094 4.94117 96.3505 5.57466C97.4916 6.18703 98.3852 7.0739 99.0311 8.23529C99.677 9.39668 100 10.7587 100 12.3213V13.4615H87.1138C87.1784 15.1297 87.7274 16.4389 88.7609 17.3891C89.7943 18.3182 91.0862 18.7828 92.6364 18.7828C93.9929 18.7828 95.0371 18.4766 95.7692 17.8643C96.5012 17.2519 97.061 16.5234 97.4486 15.6787L99.6447 16.724C99.3218 17.3786 98.8696 18.0332 98.2883 18.6878C97.7285 19.3424 96.9857 19.8914 96.0598 20.3348C95.1555 20.7783 93.9929 21 92.5718 21ZM87.146 11.4027H97.4163C97.3302 9.96682 96.8242 8.84766 95.8984 8.04525C94.9941 7.24283 93.8314 6.84163 92.4104 6.84163C90.9678 6.84163 89.7836 7.24283 88.8578 8.04525C87.9319 8.84766 87.3614 9.96682 87.146 11.4027Z" fill="white"/>
</svg>
